<svg preserveAspectRatio="none" width="2352" height="1176" overflow="visible" style="display: block;" viewBox="0 0 2352 1176" fill="none" xmlns="http://www.w3.org/2000/svg">
<g id="Isolation_Mode" clip-path="url(#clip0_766_1137)">
<path id="Vector" d="M2277.29 1176C2281.93 1173.43 2286.79 1171.15 2291.82 1169.17C2311.25 1161.53 2331.53 1158.56 2352 1157.69V1155.68C2331.32 1156.55 2310.81 1159.57 2291.11 1167.31C2284.89 1169.76 2278.94 1172.68 2273.31 1175.99H2277.29L2277.29 1176Z" fill="var(--fill-0, #C3DCFF)"/>
<path id="Vector_2" d="M2207.59 1176C2228.1 1152.65 2255.61 1134.6 2287.06 1124.71C2308.19 1118.07 2330.01 1114.83 2351.99 1113.27V1111.28C2329.84 1112.84 2307.82 1116.11 2286.47 1122.82C2254.09 1133 2225.82 1151.74 2204.95 1176H2207.59Z" fill="var(--fill-0, #C3DCFF)"/>
<path id="Vector_3" d="M2161.67 1176C2162.24 1175.19 2162.79 1174.37 2163.37 1173.56C2194.69 1129.97 2240.85 1099.63 2296.84 1085.8C2315.09 1081.29 2333.84 1078.13 2352 1075.67V1073.67C2333.69 1076.13 2314.79 1079.32 2296.37 1083.86C2239.91 1097.81 2193.38 1128.42 2161.77 1172.4C2160.91 1173.59 2160.09 1174.79 2159.26 1175.99H2161.67L2161.67 1176Z" fill="var(--fill-0, #C3DCFF)"/>
<path id="Vector_4" d="M2094.17 476.162C2075.25 459.183 2042.5 462.454 2013.55 465.351C1956.18 471.092 1897.39 481.083 1833.82 495.917C1815.01 500.298 1795.95 505.408 1777.52 510.33C1737.77 520.953 1696.69 531.94 1655.52 536.572C1594.6 543.405 1532.65 539.172 1474.41 534.273C1421.05 529.755 1359.64 526.978 1306.21 551.075C1265.75 569.334 1232.34 601.636 1209.58 644.481C1187.99 685.147 1178.18 732.186 1181.96 776.925C1186.78 833.973 1208.39 884.164 1242.8 918.241C1256.83 932.13 1273.42 943.805 1289.46 955.094C1314.33 972.596 1340.05 990.696 1355.92 1017.11C1380.21 1057.54 1370.81 1111.39 1334.53 1139.69C1289.01 1175.21 1227.82 1151.89 1203.61 1140.2C1186.85 1132.11 1170.68 1122.56 1155.06 1113.34C1124.03 1095.02 1091.98 1076.08 1054.29 1068.11C1004.43 1057.57 953.171 1061.73 903.635 1065.76L898.81 1066.16C800.602 1074.12 699.554 1074.86 637.773 990.895C614.001 958.593 599.986 919.999 586.416 882.673C581.153 868.163 575.696 853.159 569.744 838.735C566.45 830.707 562.951 822.587 559.582 814.735C542.563 775.201 524.976 734.314 524.555 690.234C524.02 633.761 556.976 588.213 590.78 546.421L598.148 537.311C632.908 494.415 665.733 453.897 692.761 405.663C696.835 398.369 700.761 391 704.931 383.194C725.375 344.855 746.508 305.213 782.126 282.994C824.272 256.695 877.177 264.735 923.863 271.836L926.679 272.257C984.847 281.082 1041.91 287.552 1100.19 269.771C1131.03 260.394 1160.05 245.884 1188.12 231.853C1210.99 220.428 1234.64 208.615 1258.99 199.733C1265.92 197.207 1272.84 194.698 1279.74 192.211C1328.05 174.794 1373.67 158.334 1418.12 132.706C1458.68 109.338 1493.08 81.3317 1529.5 51.6644C1536.88 45.6559 1544.28 39.6473 1551.76 33.633C1568.93 19.852 1585.49 8.67701 1601.7 0.00555657H1585.9C1573.04 7.69834 1560.05 16.8307 1546.84 27.4139C1539.35 33.4453 1531.94 39.4766 1524.55 45.4852C1488.38 74.9419 1454.21 102.754 1414.22 125.816C1370.37 151.085 1325.05 167.426 1277.09 184.752C1270.18 187.238 1263.25 189.731 1256.31 192.274C1231.55 201.31 1207.69 213.213 1184.63 224.735C1156.85 238.63 1128.13 252.968 1097.92 262.175C1041.21 279.461 985.109 273.105 927.863 264.411L925.046 263.973C877.04 256.678 822.605 248.411 777.967 276.257C740.567 299.592 718.917 340.189 697.978 379.444C693.842 387.217 689.938 394.545 685.881 401.76C659.196 449.402 626.581 489.675 592.037 532.298L584.669 541.408C551.48 582.444 516.111 631.195 516.68 690.313C517.101 736.003 535.013 777.631 552.339 817.893C555.707 825.722 559.189 833.819 562.484 841.779C568.362 856.05 573.773 870.969 579.019 885.398C592.76 923.259 606.985 962.4 631.446 995.629C695.623 1082.85 799.043 1082.21 899.453 1074.08L904.278 1073.68C953.28 1069.7 1003.93 1065.58 1052.69 1075.89C1089.12 1083.59 1119.21 1101.36 1151.08 1120.19C1166.85 1129.5 1183.16 1139.13 1200.22 1147.37C1225.74 1159.69 1290.38 1184.2 1339.38 1145.97C1378.77 1115.23 1389.01 1056.81 1362.68 1012.99C1345.95 985.137 1319.53 966.554 1293.99 948.574C1278.21 937.472 1261.9 925.984 1248.35 912.568C1215.27 879.816 1194.5 831.412 1189.84 776.248C1182.11 684.737 1232.43 593.084 1309.47 558.324C1361.17 534.99 1421.38 537.749 1473.77 542.17C1532.4 547.126 1594.78 551.377 1656.41 544.446C1698.15 539.758 1739.54 528.697 1779.55 517.994C1797.93 513.095 1816.94 508.002 1835.62 503.661C1898.87 488.901 1957.32 478.95 2014.4 473.248C2041.68 470.528 2072.61 467.428 2088.93 482.09C2097.34 489.63 2101.56 501.328 2101.84 517.846C2102.5 559.821 2085.71 603.838 2051.92 648.64C2045.19 657.568 2038.26 666.558 2031.56 675.258C2004.76 710.046 1977.05 746.023 1955.51 785.967C1931.6 830.308 1908.31 883.026 1884.28 947.128C1859.99 1011.98 1850.98 1070.09 1856.77 1124.78C1858.69 1143.04 1862.66 1159.94 1868.05 1175.99H1876.34C1870.71 1159.73 1866.59 1142.66 1864.61 1123.94C1858.96 1070.51 1867.82 1013.6 1891.66 949.933C1915.56 886.166 1938.71 833.779 1962.45 789.756C1983.68 750.388 2011.19 714.666 2037.79 680.128C2044.51 671.411 2051.45 662.404 2058.21 653.448C2093.09 607.195 2110.42 561.522 2109.72 517.715C2109.43 498.859 2104.35 485.271 2094.19 476.162H2094.17Z" fill="var(--fill-0, #C3DCFF)"/>
<path id="Vector_5" d="M1825.32 8.17643C1835.59 11.6245 1846.22 15.2035 1856.57 18.4923C1906.31 34.3216 1962.62 54.703 2001.18 96.5069C2030.29 128.052 2038.01 170.294 2045.47 211.159C2047.51 222.34 2049.62 233.879 2052.13 245.02C2058.29 272.274 2065.87 299.609 2075.32 328.571C2078.21 337.487 2080.96 346.813 2083.61 355.848C2089.32 375.256 2095.22 395.313 2103.4 413.806C2115.69 441.561 2139.71 449.271 2159.26 452.907C2183.9 457.465 2210.01 462.978 2234.54 475.627C2272.86 495.399 2300.65 529.584 2321.97 583.195C2332.87 610.615 2342.63 639.019 2352 666.848V642.302C2344.86 621.522 2337.39 600.635 2329.29 580.247C2307.53 525.505 2277.71 488.964 2238.14 468.56C2212.65 455.41 2185.9 449.743 2160.69 445.078C2134.12 440.156 2119.14 429.84 2110.61 410.568C2102.64 392.554 2096.81 372.747 2091.18 353.583C2088.51 344.508 2085.75 335.114 2082.81 326.101C2073.44 297.373 2065.93 270.266 2059.83 243.261C2057.35 232.274 2055.27 220.809 2053.24 209.725C2045.57 167.75 2037.64 124.336 2006.97 91.0901C1967.09 47.8694 1909.66 27.0442 1858.94 10.9076C1848.67 7.63588 1838.07 4.07399 1827.83 0.631582C1827.2 0.421055 1826.57 0.210527 1825.95 0H1800.78C1809 2.67996 1817.19 5.43388 1825.32 8.17074L1825.32 8.17643Z" fill="var(--fill-0, #C3DCFF)"/>
<path id="Vector_6" d="M1134.5 1151.74C1094.52 1131.13 1056.77 1111.67 1012.56 1103.97C965.991 1095.86 919.248 1102.88 874.059 1109.69C862.036 1111.5 849.615 1113.37 837.387 1114.91C776.829 1122.63 731.697 1117.75 691.099 1099.12C651.287 1080.85 616.299 1049.89 592.601 1011.94C573.5 981.33 563.428 945.968 553.687 911.765C548.674 894.155 543.485 875.953 537.129 858.622C532.595 846.229 527.309 833.5 522.222 821.193C505.203 780.049 487.599 737.517 489.932 693.141C493.567 624.509 535.906 572.851 576.868 522.882C601.118 493.294 626.211 462.682 643.4 428.634C675.594 364.798 686.006 308.622 674.354 261.651C671.617 250.624 668.345 239.848 665.187 229.441C652.516 187.62 640.533 148.109 667.73 104.894C678.336 88.0516 690.2 72.1255 701.665 56.7343C715.116 38.6631 728.874 20.1765 740.704 0H738.405C726.769 19.6985 713.273 37.8209 700.083 55.528C688.578 70.9534 676.692 86.9193 666.052 103.818C638.376 147.824 650.473 187.751 663.298 230.015C666.439 240.405 669.693 251.148 672.43 262.129C683.975 308.622 673.597 364.343 641.631 427.735C624.538 461.595 599.52 492.105 575.326 521.618C534.176 571.832 491.621 623.753 487.968 693.033C485.596 737.858 503.28 780.613 520.395 821.956C525.488 834.246 530.751 846.951 535.269 859.31C541.602 876.573 546.774 894.741 551.787 912.312C561.568 946.65 571.673 982.156 590.928 1012.99C614.831 1051.27 650.109 1082.5 690.268 1100.92C731.23 1119.72 776.67 1124.64 837.632 1116.89C849.882 1115.34 862.326 1113.46 874.343 1111.65C919.402 1104.88 965.968 1097.87 1012.22 1105.93C1056.14 1113.58 1093.78 1132.97 1133.6 1153.51C1139.4 1156.5 1145.21 1159.49 1151.04 1162.46C1160.14 1167.07 1169.38 1171.65 1178.77 1176.01H1183.51C1172.8 1171.14 1162.26 1165.93 1151.93 1160.68C1146.09 1157.72 1140.3 1154.73 1134.52 1151.74L1134.5 1151.74Z" fill="var(--fill-0, #C3DCFF)"/>
<path id="Vector_7" d="M1319.79 926.673C1344.08 946.389 1369.19 966.77 1387.44 992.949C1415.57 1033.31 1416.92 1089.29 1390.88 1135.54C1381.76 1151.76 1370.12 1165.39 1356.71 1176H1359.85C1372.65 1165.46 1383.78 1152.19 1392.6 1136.52C1419.01 1089.6 1417.62 1032.79 1389.06 991.811C1370.66 965.399 1345.42 944.926 1321.03 925.137C1305.96 912.898 1290.36 900.243 1276.6 886.349C1241.21 850.633 1222.66 800.903 1225.71 749.933C1228.85 697.602 1254.04 649.073 1294.83 616.788C1356.32 568.134 1431.84 571.969 1504.88 575.667C1544.21 577.659 1584.88 579.724 1622.92 573.573C1634.3 571.735 1645.8 570.262 1656.94 568.845C1669.56 567.235 1682.63 565.573 1695.54 563.348C1718.27 559.445 1741.17 554.546 1763.32 549.795C1771.14 548.128 1778.96 546.444 1786.79 544.816L1791.29 543.878C1840.73 533.545 1896.77 521.806 1948.16 526.899C1978.67 529.926 2002.17 540.816 2014.35 557.562C2023.63 570.336 2026.34 586.302 2022.39 605.01C2015.46 637.915 1996.16 666.803 1977.51 694.752C1967.35 709.967 1956.85 725.699 1948.57 741.79C1933.23 771.623 1921.31 803.765 1909.78 834.849C1906.91 842.61 1904.03 850.36 1901.11 858.07C1896.4 870.491 1891.43 883.06 1886.63 895.213C1876.83 919.982 1866.69 945.592 1858.22 971.373C1834.48 1043.66 1828.98 1109.54 1841.4 1175.99H1843.41C1830.95 1109.75 1836.41 1044.08 1860.09 971.993C1868.54 946.281 1878.66 920.687 1888.45 895.947C1893.26 883.782 1898.23 871.219 1902.94 858.775C1905.88 851.071 1908.74 843.31 1911.62 835.549C1923.14 804.51 1935.03 772.425 1950.31 742.701C1958.54 726.718 1969.02 711.031 1979.14 695.861C1997.9 667.753 2017.3 638.7 2024.32 605.426C2028.39 586.142 2025.56 569.642 2015.94 556.395C2003.42 539.166 1979.42 527.991 1948.36 524.93C1896.66 519.803 1840.46 531.57 1790.88 541.926L1786.38 542.865C1778.55 544.509 1770.72 546.176 1762.9 547.86C1740.78 552.589 1717.9 557.488 1695.21 561.374C1682.33 563.593 1669.29 565.26 1656.68 566.871C1645.53 568.287 1634.01 569.761 1622.61 571.61C1584.78 577.727 1544.21 575.667 1504.97 573.687C1431.56 569.966 1355.67 566.125 1293.61 615.235C1252.38 647.867 1226.91 696.914 1223.74 749.813C1220.65 801.358 1239.41 851.64 1275.19 887.76C1289.03 901.728 1304.67 914.411 1319.79 926.679V926.673Z" fill="var(--fill-0, #C3DCFF)"/>
<path id="Vector_8" d="M1357.64 910.001C1371.64 923.191 1386.11 936.829 1398.97 951.384C1438.57 996.187 1452.6 1046.12 1440.68 1099.78C1434.39 1128.07 1423.57 1154.17 1409.57 1176H1411.9C1425.71 1154.19 1436.37 1128.26 1442.6 1100.22C1454.68 1045.89 1440.5 995.367 1400.44 950.064C1387.52 935.441 1373.02 921.774 1358.99 908.556C1336.02 886.9 1312.25 864.505 1294.88 837.37C1266.24 792.63 1264.76 740.316 1290.95 697.431C1322.49 645.75 1375.64 627.206 1414.66 620.743C1452.88 614.415 1492.58 612.959 1530.98 611.565C1551.92 610.802 1573.55 610.017 1594.66 608.435C1633.91 605.516 1673.32 599.485 1711.43 593.67C1733.19 590.336 1755.67 586.905 1777.89 584.082L1778.14 584.054C1816.05 579.229 1855.26 574.239 1892.02 582.916C1910.33 587.235 1923.58 594.882 1931.43 605.624C1945.92 625.482 1938.86 652.145 1930.37 677.744C1922.08 702.752 1914.09 728.322 1906.37 753.05C1895.82 786.803 1884.92 821.716 1873.1 855.674C1867.28 872.397 1860.86 889.336 1854.66 905.717C1839.66 945.319 1824.13 986.269 1815.46 1028.28C1805.66 1075.75 1804.2 1125.41 1811.07 1175.99H1813.06C1806.18 1125.54 1807.62 1076.01 1817.4 1028.68C1826.04 986.833 1841.52 945.962 1856.5 906.422C1862.72 890.03 1869.14 873.068 1874.96 856.328C1886.79 822.337 1897.7 787.412 1908.26 753.642C1915.98 728.919 1923.96 703.36 1932.25 678.37C1938.64 659.076 1949.33 626.797 1933.03 604.441C1924.89 593.3 1911.26 585.408 1892.48 580.976C1877.7 577.482 1862.56 576.179 1847.29 576.179C1824.21 576.179 1800.82 579.155 1777.9 582.074L1777.65 582.102C1755.4 584.936 1732.91 588.373 1711.14 591.69C1673.07 597.516 1633.69 603.531 1594.52 606.455C1573.45 608.026 1551.83 608.811 1530.91 609.573C1492.45 610.973 1452.68 612.424 1414.34 618.768C1374.91 625.295 1321.21 644.06 1289.26 696.373C1262.68 739.924 1264.15 793.034 1293.22 838.422C1310.72 865.768 1334.58 888.243 1357.64 909.979V910.001Z" fill="var(--fill-0, #C3DCFF)"/>
<path id="Vector_9" d="M913.507 1176C951.061 1147.94 1005.71 1160.26 1043.65 1172.03C1047.72 1173.29 1051.78 1174.63 1055.82 1176H1061.98C1056.09 1173.94 1050.17 1171.97 1044.24 1170.13C1005.62 1158.15 949.854 1145.62 911.578 1174.96C911.117 1175.3 910.713 1175.65 910.275 1176H913.507Z" fill="var(--fill-0, #C3DCFF)"/>
<path id="Vector_10" d="M1438.69 954.924C1470.45 996.011 1481.54 1045.5 1470.74 1098.02C1466.84 1116.98 1459.4 1145.84 1446.12 1176H1448.27C1461.41 1145.97 1468.78 1117.31 1472.67 1098.42C1483.6 1045.31 1472.38 995.277 1440.25 953.7C1428.75 938.827 1414.96 924.34 1400.36 908.989C1355.73 862.092 1309.58 813.603 1322.6 747.674C1335.61 681.801 1410.63 662.126 1474.54 652.345C1496.48 648.988 1518.93 646.603 1540.66 644.288C1552.82 642.985 1565.38 641.648 1577.73 640.151C1591.26 638.512 1604.83 636.794 1618.39 635.059C1664.12 629.232 1711.41 623.201 1758.03 620.76C1823.24 617.334 1861.58 633.659 1871.98 669.249C1878.88 692.851 1876.11 719.179 1872.69 744.106C1872.24 747.349 1872.16 751.896 1872.08 757.164C1871.86 769.893 1871.55 787.327 1865.03 792.533L1864.78 792.852C1861.35 799.378 1860.5 806.946 1859.68 814.269C1859.37 817.119 1859.06 819.811 1858.62 822.451C1856.7 833.876 1852.95 845.296 1849.34 856.34L1848.11 860.129C1841.12 881.603 1832.83 903.003 1824.81 923.714C1821.31 932.778 1817.67 942.155 1814.2 951.413C1793.06 1007.78 1782.03 1064.73 1781.44 1120.7C1781.24 1139.06 1782.28 1157.72 1783.49 1175.99H1785.46C1784.26 1157.71 1783.22 1139.04 1783.42 1120.72C1784.01 1064.99 1795 1008.26 1816.05 952.118C1819.52 942.867 1823.16 933.495 1826.66 924.431C1834.69 903.703 1842.98 882.275 1849.98 860.75L1851.23 856.96C1854.87 845.848 1858.64 834.354 1860.58 822.786C1861.03 820.089 1861.35 817.244 1861.66 814.49C1862.44 807.418 1863.27 800.118 1866.44 793.95C1873.53 788.038 1873.82 770.951 1874.06 757.199C1874.15 751.992 1874.23 747.503 1874.65 744.374C1878.11 719.235 1880.91 692.663 1873.89 668.692C1864.11 635.224 1830.66 618.325 1774.37 618.325C1769.1 618.325 1763.62 618.467 1757.95 618.763C1711.26 621.215 1663.93 627.241 1618.16 633.079C1604.6 634.814 1591.06 636.532 1577.52 638.171C1565.19 639.662 1552.62 641.005 1540.46 642.296C1518.72 644.612 1496.24 647.013 1474.27 650.376C1414.75 659.486 1334.08 679.44 1320.68 747.287C1307.47 814.223 1353.98 863.094 1398.96 910.366C1413.53 925.666 1427.28 940.13 1438.72 954.924H1438.69Z" fill="var(--fill-0, #C3DCFF)"/>
<path id="Vector_11" d="M654.267 31.4653C663.093 21.2234 672.066 10.7938 680.663 0H678.12C669.852 10.3158 661.255 20.3244 652.777 30.168C636.6 48.9277 619.895 68.3133 606.034 89.4058C576.213 134.772 573.362 180.035 596.771 236.178C615.775 281.731 635.417 328.821 622.034 383.16C607.832 440.85 570.335 486.25 534.085 530.159C504.093 566.506 473.083 604.083 455.131 648.584C434.864 698.82 437.123 756.373 461.811 819.623C463.422 823.754 465.066 827.885 466.693 832.015C474.944 852.869 483.479 874.44 489.356 896.471C494.312 914.997 496.668 934.292 498.927 952.955C499.729 959.493 500.554 966.258 501.47 972.909C505.396 1001.06 513.664 1026.33 528.304 1054.84C538.927 1075.55 554.375 1093.22 569.323 1110.3C575.559 1117.43 582.011 1124.8 588.003 1132.27C597.88 1144.6 607.929 1159.4 611.547 1176H613.596C609.977 1158.88 599.678 1143.68 589.533 1131.03C583.525 1123.52 577.055 1116.13 570.813 1108.99C555.945 1091.99 540.571 1074.42 530.045 1053.92C515.536 1025.62 507.325 1000.55 503.439 972.631C502.5 965.996 501.681 959.242 500.895 952.716C498.597 933.985 496.247 914.616 491.268 895.953C485.351 873.808 476.799 852.186 468.525 831.276C466.898 827.15 465.254 823.025 463.643 818.894C439.143 756.129 436.884 699.082 456.946 649.329C474.784 605.112 505.698 567.656 535.615 531.445C572.002 487.342 609.63 441.772 623.951 383.638C637.505 328.667 617.71 281.253 598.591 235.415C575.451 179.967 578.267 135.272 607.667 90.504C621.465 69.5252 638.136 50.1909 654.273 31.4767L654.267 31.4653Z" fill="var(--fill-0, #C3DCFF)"/>
<path id="Vector_12" d="M0 1145.37C32.4041 1147.37 62.0544 1145.3 91.7444 1139.16C116.74 1134 141.799 1127.32 166.026 1120.86C198.413 1112.22 231.91 1103.29 265.674 1097.91C310.386 1090.76 368.189 1086.13 418.762 1113.8C448.986 1130.35 472.492 1152.16 486.768 1176H489.061C474.648 1151.45 450.648 1129 419.695 1112.06C389.646 1095.61 357.145 1090.45 326.289 1090.45C304.696 1090.45 283.91 1092.98 265.367 1095.94C231.506 1101.35 197.953 1110.29 165.509 1118.94C141.315 1125.4 116.296 1132.07 91.3404 1137.22C61.7869 1143.32 32.2903 1145.39 0 1143.37V1145.37Z" fill="var(--fill-0, #C3DCFF)"/>
<path id="Vector_13" d="M279.034 1176C272.911 1175.51 266.686 1175.23 260.354 1175.23C254.021 1175.23 247.375 1175.48 240.752 1176H279.034Z" fill="var(--fill-0, #C3DCFF)"/>
<path id="Vector_14" d="M1437.04 910.326C1459.19 937.16 1482.09 964.915 1494.54 997.7C1512.78 1045.73 1500.6 1098.57 1484.73 1148.51C1481.88 1157.46 1478.95 1166.66 1475.94 1175.99H1484.24C1486.98 1167.49 1489.65 1159.1 1492.24 1150.93C1508.56 1099.61 1521.01 1045.19 1501.91 994.855C1488.99 960.841 1465.66 932.585 1443.11 905.25C1438.43 899.578 1433.59 893.7 1428.96 887.919C1392.4 842.269 1376.01 803.566 1380.25 772.897C1382.92 753.591 1393.91 736.948 1412.91 723.429C1460.81 689.329 1526.04 680.771 1583.58 673.232L1588.57 672.572C1597.07 671.451 1605.77 670.217 1614.18 669.022C1645.05 664.629 1676.96 660.083 1708.27 660.083C1722.4 660.083 1735.33 660.982 1747.77 662.831C1778.59 667.394 1800.61 678.211 1813.24 694.979C1826.11 712.072 1829.36 734.507 1831.78 757.933C1829.99 809.449 1820.03 858.536 1801.29 907.987C1799.44 912.869 1797.58 917.728 1795.72 922.582C1779.8 964.232 1763.33 1007.3 1757.4 1053.44C1752.99 1087.62 1752.58 1122.45 1752.18 1156.13C1752.09 1162.68 1752.01 1169.33 1751.9 1176.01H1759.79C1759.9 1169.37 1759.99 1162.75 1760.07 1156.22C1760.47 1122.78 1760.88 1088.18 1765.23 1054.45C1771.04 1009.26 1786.6 968.551 1803.09 925.433C1804.95 920.573 1806.81 915.708 1808.66 910.821C1827.75 860.442 1837.89 810.439 1839.67 757.933L1839.68 757.665L1839.65 757.398C1837.12 732.698 1833.68 708.982 1819.52 690.182C1805.62 671.69 1781.86 659.855 1748.92 654.973C1736.09 653.067 1722.79 652.14 1708.27 652.14C1676.41 652.14 1644.21 656.72 1613.08 661.152C1604.7 662.347 1596.01 663.582 1587.55 664.692L1582.57 665.34C1524.11 673.005 1457.86 681.699 1408.35 716.931C1387.51 731.776 1375.41 750.234 1372.44 771.799C1367.81 805.187 1384.29 844.812 1422.81 892.903C1427.48 898.73 1432.34 904.63 1437.04 910.32L1437.04 910.326Z" fill="var(--fill-0, #C3DCFF)"/>
<path id="Vector_15" d="M1481.34 909.637C1506.81 941.973 1533.13 975.402 1541.18 1016.29C1549.29 1057.58 1536.58 1098.61 1524.28 1138.28C1520.43 1150.69 1516.52 1163.45 1513.29 1176H1515.33C1518.52 1163.65 1522.37 1151.09 1526.16 1138.88C1538.54 1098.96 1551.34 1057.68 1543.11 1015.9C1534.98 974.554 1508.5 940.921 1482.89 908.403C1476.72 900.573 1470.35 892.488 1464.43 884.522C1426.14 832.909 1419.47 790.991 1444.62 759.93C1469.29 729.46 1513.67 718.598 1546.08 710.661C1582.49 701.75 1625.5 692.652 1668.48 692.652H1668.49C1684.26 692.652 1699.45 693.904 1713.6 696.373C1765.28 705.397 1794 739.918 1798.98 798.889C1799.08 846.98 1780.45 891.947 1762.44 935.447C1760.5 940.118 1758.56 944.778 1756.66 949.438C1735.69 1000.72 1725.57 1047.49 1724.83 1096.63L1724.72 1104.7C1724.4 1127.63 1724.05 1152.03 1721.85 1176H1723.84C1726.02 1152.03 1726.36 1127.65 1726.69 1104.72L1726.8 1096.67C1727.54 1047.78 1737.61 1001.24 1758.48 950.201C1760.38 945.552 1762.31 940.886 1764.25 936.221C1782.34 892.545 1801.04 847.378 1800.93 798.809C1795.88 738.735 1766.6 703.611 1713.94 694.416C1699.66 691.929 1684.37 690.666 1668.48 690.666H1668.47C1625.28 690.666 1582.12 699.804 1545.61 708.743C1512.92 716.732 1468.17 727.691 1443.08 758.678C1417.28 790.536 1423.93 833.279 1462.84 885.717C1468.78 893.706 1475.15 901.802 1481.32 909.643L1481.34 909.637Z" fill="var(--fill-0, #C3DCFF)"/>
<path id="Vector_16" d="M2352 1030.09C2347.76 1031.29 2343.53 1032.47 2339.36 1033.62C2294.87 1046.01 2248.86 1058.81 2208.82 1083.57C2170.95 1107 2142.14 1139.07 2114.34 1175.99H2116.82C2144.22 1139.74 2172.66 1108.27 2209.86 1085.26C2249.66 1060.64 2295.53 1047.87 2339.88 1035.53C2343.87 1034.42 2347.93 1033.29 2351.99 1032.15V1030.09L2352 1030.09Z" fill="var(--fill-0, #C3DCFF)"/>
<path id="Vector_17" d="M1887.87 1128.47C1891.74 1144.75 1897.89 1160.79 1905.81 1176H1908.02C1899.95 1160.67 1893.71 1144.47 1889.78 1128.01C1878.05 1078.84 1883.91 1026.41 1908.77 957.99C1930.81 897.33 1955.9 843.441 1983.36 797.813C2005.91 760.328 2033.78 729.978 2063.29 697.852C2070.92 689.534 2078.81 680.942 2086.54 672.282C2094.55 663.303 2102.54 654.034 2110.26 645.061C2121.06 632.504 2132.24 619.536 2143.65 607.161C2145.86 604.777 2148.11 602.273 2150.41 599.707C2164.99 583.513 2181.51 565.169 2201.09 558.222C2206.45 556.327 2211.92 555.348 2217.38 555.348H2217.39C2256.32 555.365 2288.17 604.156 2300.06 625.135C2321.49 662.956 2337.3 704.094 2351.99 744.618V738.848C2337.78 699.895 2322.37 660.527 2301.77 624.145C2286.79 597.715 2255.91 553.374 2217.39 553.374H2217.38C2211.7 553.374 2206 554.37 2200.44 556.344C2180.38 563.462 2163.69 582.011 2148.96 598.375C2146.66 600.93 2144.4 603.428 2142.21 605.812C2130.77 618.205 2119.6 631.195 2108.77 643.747C2101.06 652.714 2093.07 661.977 2085.07 670.956C2077.36 679.599 2069.46 688.191 2061.83 696.498C2032.26 728.703 2004.32 759.116 1981.67 796.777C1954.15 842.525 1928.99 896.528 1906.91 957.307C1881.92 1026.11 1876.04 1078.9 1887.86 1128.47H1887.87Z" fill="var(--fill-0, #C3DCFF)"/>
<path id="Vector_18" d="M1549.37 927.151C1559.8 938.588 1570.58 950.417 1579.73 962.582C1597.25 985.865 1606.06 1006.02 1607.44 1026.01C1608.96 1047.95 1600.12 1068.59 1591.55 1088.55C1589.45 1093.42 1587.29 1098.46 1585.35 1103.4C1578.7 1120.19 1567.51 1148.57 1564.26 1176.01H1566.24C1569.5 1148.91 1580.61 1120.77 1587.18 1104.13C1589.12 1099.23 1591.27 1094.2 1593.36 1089.34C1602.02 1069.16 1610.97 1048.3 1609.42 1025.87C1608 1005.48 1599.07 984.989 1581.31 961.393C1572.1 949.154 1561.29 937.296 1550.83 925.819C1529.41 902.314 1507.26 878.007 1496.39 848.192C1480.18 803.679 1511.46 771.56 1546.13 756.339C1575.5 743.446 1610.5 736.049 1642.15 736.049C1675.66 736.049 1734.3 744.971 1750.47 804.561C1754.3 837.961 1746.44 873.831 1727.1 911.174C1721.15 922.667 1714.02 934.144 1707.16 945.234C1694.5 965.655 1681.4 986.776 1674.32 1009.71C1665.6 1037.93 1669.15 1067.91 1672.58 1096.9C1675.19 1119.02 1677.9 1141.89 1675.15 1163.83C1674.66 1167.72 1673.89 1171.81 1672.87 1176H1674.89C1675.88 1171.89 1676.63 1167.89 1677.11 1164.07C1679.89 1141.89 1677.17 1118.9 1674.53 1096.66C1671.13 1067.89 1667.6 1038.11 1676.2 1010.3C1683.21 987.606 1696.23 966.599 1708.83 946.28C1715.72 935.157 1722.86 923.646 1728.85 912.084C1748.38 874.377 1756.31 838.121 1752.39 804.18C1735.86 743.161 1676.22 734.052 1642.15 734.052H1642.14C1610.23 734.052 1574.96 741.506 1545.34 754.513C1509.85 770.092 1477.85 803.071 1494.54 848.869C1505.54 879.054 1527.81 903.504 1549.37 927.151H1549.37Z" fill="var(--fill-0, #C3DCFF)"/>
<path id="Vector_19" d="M2352 965.444C2350.66 967.088 2349.22 968.71 2347.65 970.275C2328.95 988.938 2304.56 1000.24 2280.97 1011.17C2277.71 1012.69 2274.43 1014.2 2271.19 1015.73C2230.37 1034.97 2177.46 1062.49 2130.25 1104.78C2122.13 1112.07 2114.16 1120.2 2105.72 1128.82C2088.6 1146.29 2071.11 1164.13 2051.2 1176H2055C2073.95 1164.06 2090.71 1146.96 2107.12 1130.21C2115.53 1121.62 2123.49 1113.52 2131.57 1106.27C2178.59 1064.13 2231.33 1036.72 2272.03 1017.54C2275.27 1016 2278.53 1014.49 2281.8 1012.98C2305.55 1001.97 2330.09 990.594 2349.04 971.68C2350.08 970.645 2351.06 969.581 2352 968.505V965.444Z" fill="var(--fill-0, #C3DCFF)"/>
<path id="Vector_20" d="M1918.19 1118.52C1925.46 1140.14 1939.51 1161.87 1958.68 1176H1962.1C1942.13 1162.21 1927.5 1139.99 1920.06 1117.89C1906.77 1078.37 1908.69 1032.39 1925.93 977.302C1941.98 926.042 1967.2 871.669 1998.87 820.055C2026.77 774.593 2062.12 739.241 2106.62 700.146C2108.6 698.405 2110.64 696.584 2112.77 694.706C2141.14 669.557 2180.01 635.104 2217.88 635.104H2217.89C2223.88 635.104 2229.72 636.003 2235.23 637.767C2272.94 649.847 2294.66 687.924 2312.53 727.287C2329.54 764.755 2341.51 804.402 2352 843.89V836.272C2341.94 799.065 2330.37 761.813 2314.32 726.45C2296.27 686.683 2274.27 648.185 2235.83 635.867C2230.12 634.046 2224.1 633.118 2217.89 633.118H2217.88C2179.27 633.118 2140.08 667.85 2111.47 693.21C2109.35 695.087 2107.3 696.902 2105.32 698.632C2060.69 737.853 2025.22 773.33 1997.2 818.997C1965.44 870.747 1940.14 925.273 1924.05 976.699C1906.68 1032.2 1904.76 1078.59 1918.2 1118.51L1918.19 1118.52Z" fill="var(--fill-0, #C3DCFF)"/>
<path id="Vector_21" d="M2207.03 698.393H2207.04C2225.25 698.393 2241.5 704.919 2255.33 717.796C2293.23 753.062 2306.08 806.371 2314.31 858.718C2314.61 865.848 2314.66 871.993 2314.49 877.62C2313.83 898.121 2308.87 927.299 2288.95 949.865C2274.85 965.848 2256.15 977.228 2238.07 988.232C2235.29 989.928 2232.53 991.612 2229.79 993.302C2184.31 1021.44 2135.95 1052.39 2090.55 1088.1C2059.69 1112.38 2032.3 1124.69 2009.16 1124.69C1990.94 1124.69 1975.29 1117.01 1962.63 1101.87C1934.39 1068.06 1944.87 1015.58 1955.22 979.049C1984.48 875.72 2042.08 789.318 2117.42 735.782C2139.99 719.73 2173.86 698.399 2207.02 698.399L2207.03 698.393ZM2009.16 1122.7C2031.85 1122.7 2058.83 1110.53 2089.35 1086.53C2134.81 1050.76 2183.22 1019.77 2228.76 991.606C2231.49 989.911 2234.27 988.215 2237.05 986.525C2255.01 975.606 2273.56 964.3 2287.48 948.539C2307 926.411 2311.87 897.723 2312.51 877.546C2312.68 871.97 2312.64 865.87 2312.35 858.906C2304.18 807.025 2291.44 754.103 2253.98 719.247C2240.52 706.729 2224.72 700.373 2207.03 700.373H2207.01C2174.41 700.373 2140.91 721.506 2118.55 737.403C2043.58 790.672 1986.25 876.687 1957.11 979.589C1946.89 1015.69 1936.49 1067.5 1964.13 1100.59C1976.4 1115.26 1991.54 1122.7 2009.15 1122.7H2009.16Z" fill="var(--fill-0, #C3DCFF)"/>
<path id="Vector_22" d="M1683.89 11.5052H1683.91C1687.61 11.5052 1691.35 11.619 1695.05 11.8693C1745.12 15.2377 1799.27 32.8822 1856.01 64.2963C1963.79 123.995 2002.92 241.156 2016.77 328.935C2021.31 382.01 1985.82 410.494 1955.26 425.06C1919.16 442.267 1879.43 453.368 1841 464.088C1825.1 468.549 1808.63 473.14 1792.81 478.079C1742.78 493.681 1683.25 510.273 1620.93 514.87C1611.77 515.536 1602.18 515.883 1592.44 515.883C1553.6 515.883 1515.68 510.62 1478.99 505.527C1449.16 501.374 1412.02 496.207 1375.77 496.207C1314.12 496.207 1268.14 511.69 1235.17 543.559C1199.69 577.829 1171.63 628.071 1158.18 681.42C1142.51 743.6 1153.96 809.022 1165.68 859.077C1179.43 917.768 1202.77 956.773 1237.02 978.292C1241.9 981.353 1247.17 984.415 1252.75 987.663C1279.87 1003.4 1310.61 1021.23 1317.66 1051.71C1323.45 1076.81 1310.8 1099.07 1286.17 1107.1C1280.2 1109.04 1273.9 1110.03 1267.44 1110.03C1252.26 1110.03 1235.73 1104.72 1216.92 1093.8C1207.32 1088.24 1198.09 1081.77 1189.17 1075.54C1175.48 1065.96 1161.32 1056.06 1145.68 1049.28C1125.01 1040.32 1101.05 1034.98 1072.4 1032.96C1062.63 1032.27 1052.59 1031.93 1041.71 1031.93C1011.43 1031.93 980.118 1034.65 949.836 1037.27C919.367 1039.91 887.839 1042.65 857.159 1042.65C809.904 1042.65 771.964 1036.14 737.761 1022.13C697.221 1005.55 663.724 973.035 638.193 925.529C607.877 869.074 583.24 813.586 564.964 760.607C544.543 701.386 548.253 647.594 576.008 600.726C596.833 565.545 624.128 534.347 650.524 504.185C659.883 493.505 669.551 482.438 678.774 471.394C687.616 460.81 696.231 449.556 704.555 438.682C726.262 410.375 748.675 381.106 777.807 359.535C822.445 326.443 877.95 322.63 915.811 322.63C921.478 322.63 927.259 322.704 933.478 322.898C948.084 323.359 963.105 324.372 977.637 325.367C997.484 326.71 1018.02 328.104 1038.14 328.104C1064.23 328.104 1085.61 325.788 1105.46 320.849C1144.08 311.205 1176.73 288.098 1208.31 265.742C1220.69 256.98 1233.51 247.905 1246.5 239.768C1275.47 221.663 1307.25 207.113 1337.99 193.025C1359.59 183.147 1381.9 172.928 1403.01 161.577C1442.57 140.291 1479.04 113.497 1514.29 87.5795C1524.61 79.9777 1535.28 72.1541 1545.91 64.5353C1596.36 28.3587 1640.21 11.5165 1683.9 11.5165L1683.89 11.5052ZM1592.43 513.886C1602.12 513.886 1611.67 513.562 1620.78 512.873C1682.9 508.298 1742.3 491.758 1792.22 476.179C1808.08 471.223 1824.55 466.625 1840.48 462.17C1878.81 451.473 1918.46 440.389 1954.42 423.257C1984.41 408.958 2019.24 381.032 2014.8 329.162C2001.03 241.902 1962.14 125.355 1855.05 66.0374C1798.57 34.7599 1744.69 17.2122 1694.9 13.8608C1691.26 13.6104 1687.55 13.4796 1683.9 13.4796C1640.63 13.4796 1597.15 30.2079 1547.03 66.1342C1536.42 73.753 1525.76 81.5994 1515.45 89.1613C1480.13 115.136 1443.61 141.987 1403.93 163.329C1382.77 174.698 1360.41 184.94 1338.79 194.835C1308.11 208.883 1276.39 223.392 1247.53 241.464C1234.58 249.56 1221.79 258.613 1209.43 267.358C1177.7 289.811 1144.89 313.026 1105.91 322.75C1085.92 327.746 1064.37 330.079 1038.13 330.079C1017.93 330.079 997.376 328.679 977.49 327.325C962.98 326.346 947.976 325.316 933.41 324.872C927.208 324.679 921.449 324.582 915.799 324.582C878.206 324.582 823.122 328.372 778.962 361.1C750.057 382.517 727.724 411.672 706.114 439.883C697.767 450.773 689.135 462.028 680.27 472.651C671.024 483.718 661.363 494.779 651.997 505.476C625.659 535.565 598.421 566.688 577.675 601.716C550.25 648.054 546.591 701.295 566.825 759.93C585.067 812.812 609.664 868.198 639.923 924.556C665.226 971.652 698.376 1003.86 738.495 1020.27C772.453 1034.16 810.16 1040.63 857.148 1040.63C887.754 1040.63 919.219 1037.91 949.671 1035.27C979.993 1032.64 1011.34 1029.93 1041.7 1029.93C1052.63 1029.93 1062.7 1030.26 1072.52 1030.95C1101.38 1033 1125.58 1038.39 1146.44 1047.43C1162.27 1054.29 1176.51 1064.26 1190.28 1073.89C1199.17 1080.11 1208.37 1086.54 1217.89 1092.06C1236.4 1102.81 1252.61 1108.02 1267.43 1108.02C1273.69 1108.02 1279.79 1107.08 1285.56 1105.19C1309.16 1097.5 1321.29 1076.18 1315.73 1052.14C1308.88 1022.5 1278.54 1004.89 1251.76 989.37C1246.16 986.116 1240.88 983.043 1235.97 979.965C1201.25 958.155 1177.63 918.753 1163.76 859.521C1151.98 809.25 1140.49 743.52 1156.27 680.919C1169.81 627.229 1198.06 576.634 1233.79 542.114C1267.15 509.88 1313.58 494.204 1375.76 494.204C1412.15 494.204 1449.36 499.394 1479.27 503.547C1515.87 508.64 1553.73 513.88 1592.43 513.88L1592.43 513.886Z" fill="var(--fill-0, #C3DCFF)"/>
<path id="Vector_23" d="M0 854.217C7.02706 855.299 13.9745 856.601 20.8251 857.882C31.0442 859.805 41.6104 861.796 52.3132 863.031C110.447 869.74 157.856 866.775 201.514 853.7L207.796 851.805C245.845 840.271 288.991 827.202 320.553 854.923C347.199 878.331 350.699 921.865 340.366 952.761C322.141 1007.25 258.732 1028.55 207.802 1045.65C201.583 1047.74 195.495 1049.78 189.674 1051.82C180.12 1055.16 170.493 1058.69 161.173 1062.11C128.137 1074.22 93.9692 1086.75 58.6745 1092.48C39.7612 1095.54 20.1651 1096.8 0.00568993 1096.32V1104.27C20.5805 1104.74 40.6033 1103.45 59.9149 1100.32C95.9549 1094.48 130.487 1081.82 163.87 1069.58C173.15 1066.17 182.778 1062.65 192.257 1059.33C198.055 1057.3 204.103 1055.27 210.288 1053.19C262.909 1035.53 328.366 1013.54 347.854 955.299C359.012 921.899 355.012 874.639 325.743 848.937C310.181 835.281 292.155 830.57 273.566 830.57C250.505 830.57 226.579 837.813 205.526 844.197L199.267 846.081C156.678 858.849 110.265 861.717 53.2236 855.145C42.7939 853.939 32.3586 851.976 22.2931 850.075C14.9816 848.71 7.55622 847.31 0.0113799 846.172V854.217H0Z" fill="var(--fill-0, #C3DCFF)"/>
<path id="Vector_24" d="M2190.65 747.833H2190.66C2201.45 747.844 2211.83 749.95 2221.5 754.12C2256.57 769.233 2268.54 813.313 2272.55 838.246L2272.6 838.769C2272.65 840.505 2272.69 842.246 2272.75 844.004C2273.41 865.137 2274.15 889.08 2261.96 908.46C2249.32 928.556 2235.9 943.925 2219.7 956.83C2197.77 974.303 2173.64 989.166 2150.31 1003.54C2138.93 1010.56 2127.16 1017.8 2115.83 1025.24C2113.85 1026.54 2111.76 1027.94 2109.56 1029.41C2089.04 1043.11 2058.04 1063.81 2030.49 1063.81C2021.69 1063.81 2013.69 1061.71 2006.7 1057.58C1988.81 1046.98 1982.49 1023.05 1987.91 986.44C1998.98 911.908 2041.52 834.843 2096.3 790.132C2130.66 762.063 2162.41 747.833 2190.64 747.833H2190.65ZM2264.71 839.247C2260.92 815.89 2249.88 774.991 2218.39 761.42C2209.71 757.677 2200.38 755.782 2190.65 755.782C2164.27 755.782 2134.2 769.409 2101.27 796.305C2047.93 839.839 2006.51 914.929 1995.73 987.607C1992.35 1010.37 1992.2 1039.77 2010.7 1050.72C2016.47 1054.13 2023.12 1055.86 2030.49 1055.86C2055.66 1055.86 2085.47 1035.96 2105.19 1022.79C2107.41 1021.3 2109.52 1019.9 2111.52 1018.58C2122.94 1011.08 2134.75 1003.8 2146.18 996.762C2169.32 982.508 2193.23 967.771 2214.8 950.594C2230.28 938.269 2243.14 923.521 2255.29 904.204C2266.18 886.883 2265.51 865.205 2264.86 844.243C2264.81 842.57 2264.75 840.892 2264.71 839.236L2264.71 839.247Z" fill="var(--fill-0, #C3DCFF)"/>
<path id="Vector_25" d="M0 916.767C16.0968 917.871 33.3999 920.181 53.0756 923.868L54.7428 924.175C80.6206 928.994 116.052 935.6 133.395 956.903C138.908 963.657 140.803 970.838 139.022 978.235C133.144 1002.86 88.9677 1024.69 70.2478 1032.94C49.5536 1042.06 23.3173 1042.91 0 1043.57V1045.55C23.5051 1044.9 49.9746 1044.04 71.033 1034.76C90.0374 1026.39 134.868 1004.19 140.934 978.696C142.868 970.667 140.837 962.912 134.925 955.652C117.127 933.785 81.2749 927.105 55.1069 922.223L53.4455 921.91C33.6332 918.218 16.2163 915.879 0.00568993 914.781V916.772L0 916.767Z" fill="var(--fill-0, #C3DCFF)"/>
<path id="Vector_26" d="M1675.88 48.1196H1675.89C1709.35 48.1196 1744.02 56.7114 1776.15 72.9448C1818.67 94.4413 1857.28 127.841 1887.81 169.565C1917.64 210.317 1938.5 257.133 1948.14 304.969L1948.2 305.31C1952.52 343.575 1932.07 375.729 1887.46 400.901C1847.25 423.581 1800.65 443.678 1745 462.341C1693.32 479.684 1645.61 488.122 1599.15 488.122C1592.85 488.122 1586.48 487.951 1580.24 487.644C1538.92 485.521 1497.27 478.301 1456.97 471.319C1441.27 468.583 1425.04 465.766 1409.13 463.319C1399.44 461.829 1389.5 460.122 1379.88 458.494C1347.22 452.964 1313.46 447.24 1280.44 447.24C1273.17 447.24 1266.05 447.524 1259.29 448.082C1239.02 449.726 1216.3 454.056 1201.53 473.368C1190.16 488.241 1182.61 506.631 1175.32 524.418C1173.94 527.769 1172.57 531.098 1171.19 534.369C1168.15 541.601 1165.02 548.879 1161.87 556.207C1144.03 597.659 1125.58 640.521 1119.07 684.635C1112.52 728.908 1118.73 776.089 1124.72 821.728C1126.04 831.816 1127.41 842.246 1128.59 852.317C1134.67 904.169 1136.35 961.416 1079.03 984.579C1027.08 1005.56 970.042 1007.71 914.878 1009.8L908.733 1010.04C897.131 1010.48 886.929 1010.68 877.569 1010.68C821.774 1010.68 781.233 1002.81 746.132 985.131C699.56 961.672 670.638 916.579 648.493 875.56C644.419 868.016 640.129 860.289 635.992 852.801C613.767 812.704 590.786 771.23 581.443 726.222C571.32 677.414 584.47 626.529 619.44 579.081C634.985 557.971 653.124 538.597 670.661 519.843C672.977 517.357 675.309 514.847 677.648 512.355C683.736 505.806 689.711 498.768 695.486 491.951C706.183 479.336 717.267 466.284 729.978 455.279C736.812 449.385 743.492 443.012 749.944 436.85C763.264 424.121 777.045 410.972 793.262 400.867C816.021 386.722 842.417 376.827 871.68 371.507C889.655 368.252 908.414 366.665 929.023 366.665C970.787 366.665 1012.69 373.288 1053.23 379.7C1059.95 380.77 1066.74 382.033 1073.96 383.376C1092.73 386.858 1112.17 390.477 1130.69 390.477C1157.79 390.477 1177.14 382.687 1191.61 365.959C1200.54 355.643 1208.5 344.155 1216.19 333.054C1224.86 320.536 1233.83 307.597 1244.34 296.035C1263.32 275.153 1284.62 257.429 1307.63 243.341C1326.43 231.819 1345.77 220.468 1364.47 209.48C1398.44 189.554 1433.55 168.94 1466.68 146.641C1477.16 139.58 1487.84 131.978 1498.17 124.649C1534.63 98.7543 1572.32 71.9718 1615.04 57.8494C1634.55 51.397 1655.01 48.1253 1675.87 48.1253L1675.88 48.1196ZM1940.38 306.363C1921.01 210.601 1855.18 121.77 1772.61 80.0458C1741.57 64.37 1708.12 56.0628 1675.89 56.0628C1655.87 56.0628 1636.22 59.1979 1617.51 65.3999C1575.91 79.1411 1538.71 105.577 1502.72 131.13C1492.35 138.498 1481.64 146.117 1471.06 153.241C1437.74 175.693 1402.52 196.365 1368.46 216.348C1349.78 227.318 1330.46 238.647 1311.73 250.112C1289.36 263.819 1268.64 281.082 1250.16 301.407C1240 312.565 1231.19 325.293 1222.66 337.6C1214.85 348.872 1206.77 360.531 1197.57 371.171C1181.71 389.504 1159.84 398.426 1130.69 398.426C1111.44 398.426 1091.65 394.733 1072.52 391.171C1065.37 389.828 1058.61 388.588 1052.01 387.535C1011.77 381.18 970.179 374.596 929.029 374.596C908.875 374.596 890.576 376.144 873.103 379.325C844.795 384.474 819.339 393.988 797.421 407.615C781.876 417.282 768.402 430.164 755.384 442.602C748.857 448.844 742.104 455.274 735.133 461.305C722.866 471.911 712.009 484.713 701.506 497.118C695.668 503.991 689.637 511.109 683.418 517.789C681.079 520.276 678.746 522.785 676.413 525.294C659.036 543.86 641.062 563.075 625.784 583.815C602.359 615.599 576.993 665.824 589.187 724.595C598.279 768.419 620.959 809.352 642.894 848.931C647.048 856.425 651.355 864.186 655.429 871.754C676.999 911.691 705.045 955.549 749.677 978.013C783.617 995.117 823.065 1002.74 877.575 1002.74C886.838 1002.74 896.927 1002.53 908.432 1002.09L914.577 1001.85C969.069 999.789 1025.42 997.666 1076.09 977.194C1128.24 956.13 1126.75 904.414 1120.76 853.239C1119.59 843.23 1118.21 832.823 1116.89 822.769C1110.83 776.584 1104.55 728.834 1111.27 683.463C1117.95 638.319 1136.59 594.967 1154.64 553.049C1157.77 545.755 1160.9 538.483 1163.93 531.268C1165.3 528.014 1166.66 524.719 1168.03 521.391C1175.52 503.109 1183.27 484.218 1195.27 468.526C1211.93 446.745 1236.65 441.959 1258.65 440.161C1265.62 439.587 1272.96 439.302 1280.44 439.302C1314.12 439.302 1348.22 445.083 1381.18 450.671C1390.77 452.298 1400.69 453.982 1410.33 455.456C1426.3 457.925 1442.58 460.759 1458.31 463.479C1498.37 470.449 1539.79 477.624 1580.64 479.712C1586.74 480.036 1592.98 480.19 1599.15 480.19C1644.74 480.19 1691.63 471.883 1742.51 454.83C1797.68 436.321 1843.83 416.412 1883.6 393.982C1925.11 370.574 1944.21 341.094 1940.38 306.374V306.363Z" fill="var(--fill-0, #C3DCFF)"/>
<path id="Vector_27" d="M922.81 425.345C960.364 425.345 996.216 432.446 1023.72 445.328C1058.84 461.772 1080.59 486.847 1088.34 519.883C1092.22 554.529 1085.68 588.703 1079.36 621.761C1075.93 639.753 1072.37 658.347 1070.53 676.783C1066.88 713.631 1070.92 748.419 1075.2 785.244C1076.22 793.95 1077.27 802.957 1078.19 811.907C1081.73 846.235 1082.52 889.762 1056.79 921.911C1035.87 948.067 1001.89 962.941 952.933 967.373C934.867 969.012 918.617 969.803 903.203 969.803C866.548 969.803 835.561 965.273 808.454 955.97C761.37 939.805 720.334 907.009 689.785 861.131C661.398 818.485 631.099 768.129 621.625 718.023C612.129 667.69 628.248 620.509 672.368 569.55C724.084 509.783 805.091 429.851 911.049 425.584C914.935 425.43 918.878 425.356 922.799 425.356L922.81 425.345ZM903.208 967.8C918.543 967.8 934.753 967.003 952.745 965.382C1001.15 961 1034.69 946.377 1055.26 920.659C1080.53 889.074 1079.74 846.058 1076.24 812.112C1075.3 803.173 1074.26 794.177 1073.25 785.466C1068.94 748.521 1064.89 713.642 1068.58 676.572C1070.42 658.052 1073.98 639.411 1077.42 621.38C1083.72 588.475 1090.21 554.444 1086.4 520.224C1066.17 434.05 956.073 427.336 922.804 427.336C918.901 427.336 914.975 427.41 911.129 427.57C805.933 431.797 725.33 511.365 673.842 570.848C630.166 621.323 614.2 667.969 623.577 717.648C632.954 767.401 663.139 817.54 691.429 860.027C721.728 905.535 762.422 938.064 809.085 954.081C835.999 963.316 866.776 967.805 903.197 967.805L903.208 967.8Z" fill="var(--fill-0, #C3DCFF)"/>
<path id="Vector_28" d="M2170.34 814.178C2185.26 814.178 2204.6 819.959 2212.13 847.498C2219.47 902.48 2164.37 937.029 2140.35 949.336C2130.3 954.485 2103.59 968.164 2083.82 968.164C2071.9 968.164 2064.28 963.276 2061.16 953.626C2052.43 926.582 2071.76 889.364 2077.89 878.605C2089.75 857.78 2106.08 840.516 2125.11 828.676C2139.93 819.458 2156.42 814.178 2170.35 814.178H2170.34ZM2083.81 966.184C2103.12 966.184 2129.51 952.665 2139.45 947.572C2163.1 935.458 2217.35 901.49 2210.21 847.896C2203.03 821.694 2184.57 816.169 2170.35 816.169C2156.77 816.158 2140.66 821.336 2126.14 830.371C2107.4 842.035 2091.3 859.054 2079.59 879.595C2073.56 890.178 2054.56 926.747 2063.05 953.018C2065.87 961.757 2072.86 966.184 2083.82 966.184H2083.81Z" fill="var(--fill-0, #C3DCFF)"/>
<path id="Vector_29" d="M904.05 479.911H904.067C933.547 479.911 960.551 488.696 984.364 506.017C1014.89 528.241 1027.73 566.978 1023.64 624.469C1019.62 681.107 1025.44 735.275 1031.6 792.618C1032.22 798.371 1032.82 804.123 1033.44 809.893C1036.08 855.697 1022.91 888.311 994.298 906.849C972.728 920.824 945.143 927.913 912.318 927.913C897.598 927.913 882.303 926.451 866.878 923.578C817.017 914.286 771.253 887.976 734.542 847.503C694.268 803.145 667.395 752.442 660.795 708.402C654.172 664.214 671.725 622.393 716.032 576.771C738.121 554.062 816.943 479.911 904.05 479.911ZM912.318 925.922C944.762 925.922 971.977 918.946 993.246 905.171C1021.21 887.043 1034.07 855.042 1031.49 810.052C1030.87 804.328 1030.26 798.576 1029.63 792.823C1023.74 737.915 1017.63 681.13 1021.67 624.316C1025.71 567.565 1013.14 529.396 983.22 507.633C959.755 490.54 933.126 481.886 904.073 481.886C817.711 481.886 739.407 555.559 717.455 578.153C673.603 623.28 656.226 664.572 662.752 708.089C669.301 751.747 695.998 802.069 736.004 846.149C772.431 886.303 817.808 912.397 867.231 921.609C882.56 924.46 897.74 925.905 912.329 925.905L912.318 925.922Z" fill="var(--fill-0, #C3DCFF)"/>
<path id="Vector_30" d="M1625.84 789.569H1625.85C1652.09 789.58 1682.04 801.648 1689.82 828.607C1692.76 846.104 1687.28 865.097 1675.18 879.521C1663.67 893.233 1647.87 901.091 1631.8 901.091C1625.91 901.091 1620.02 900.039 1614.31 897.962C1598.12 892.067 1576.68 875.947 1567.86 854.485C1562.98 842.61 1562.98 830.809 1567.86 820.345C1576.71 801.37 1598.92 789.569 1625.83 789.569H1625.84ZM1631.8 899.111C1647.28 899.111 1662.54 891.504 1673.67 878.24C1685.41 864.26 1690.72 845.865 1687.89 829.051C1680.44 803.19 1651.35 791.566 1625.85 791.566H1625.84C1599.71 791.566 1578.17 802.917 1569.64 821.199C1564.94 831.276 1564.95 842.223 1569.69 853.728C1578.28 874.65 1599.18 890.354 1614.97 896.107C1620.46 898.11 1626.13 899.122 1631.8 899.122L1631.8 899.111Z" fill="var(--fill-0, #C3DCFF)"/>
<path id="Vector_31" d="M867.759 554.427H867.776C875.566 554.427 883.184 555.269 890.422 556.913C935.327 567.098 948.647 610.37 952.59 635.263C956.3 658.729 958.468 682.78 960.55 706.035C962.428 726.888 964.357 748.447 967.401 769.438L967.441 769.841C968.59 796.783 970.519 841.876 933.637 856.789C922.399 861.324 910.246 863.634 897.5 863.634C864.14 863.634 833.244 848.237 813.227 835.316C765.585 804.596 692.64 732.709 721.408 658.148C743.098 601.92 810.126 554.427 867.759 554.427ZM959.577 770.393C956.516 749.255 954.564 727.651 952.687 706.757C950.621 683.628 948.476 659.707 944.801 636.509C941.165 613.607 929.051 573.823 888.698 564.668C882.018 563.155 874.974 562.37 867.776 562.37C813.05 562.37 749.391 607.553 728.76 661.027C701.846 730.803 771.867 799.202 817.477 828.624C836.618 840.966 866.035 855.685 897.506 855.685C909.239 855.685 920.419 853.569 930.695 849.415C959.885 837.609 960.937 802.462 959.577 770.382V770.393Z" fill="var(--fill-0, #C3DCFF)"/>
<path id="Vector_32" d="M1540.77 0.000133357C1534.68 5.87783 1528.67 11.7897 1522.74 17.6674C1507.91 32.3303 1492.58 47.4883 1476.36 61.0018C1432.21 97.7531 1384.51 125.235 1334.57 142.675C1305.6 152.78 1275.12 159.364 1245.65 165.742C1218.56 171.597 1190.53 177.668 1163.67 186.453C1158.34 188.194 1152.78 190.106 1147.02 192.064C1102.13 207.432 1046.26 226.533 1003.88 203.335C992.494 197.076 986.253 189.247 985.336 180.041C982.81 154.658 1020.61 122.732 1043.2 103.654C1048.29 99.3292 1052.71 95.6137 1055.94 92.5866C1086.04 64.5011 1111.86 33.1724 1134.7 0.000133357H1132.28C1109.72 32.6546 1084.24 63.4713 1054.61 91.13C1051.4 94.1172 1047.01 97.8271 1041.92 102.117C1017.56 122.709 980.75 153.799 983.373 180.251C984.369 190.146 990.952 198.493 1002.95 205.077C1046.09 228.695 1102.41 209.424 1147.65 193.953C1153.39 191.978 1158.96 190.084 1164.28 188.342C1191.04 179.574 1219.02 173.526 1246.07 167.671C1275.6 161.298 1306.13 154.692 1335.21 144.547C1385.38 127.033 1433.29 99.4316 1477.62 62.5267C1493.9 48.9563 1509.26 33.7755 1524.12 19.0785C1530.55 12.7228 1537.02 6.33302 1543.64 -0.00555657H1540.78L1540.77 0.000133357Z" fill="var(--fill-0, #C3DCFF)"/>
<path id="Vector_33" d="M2089.01 35.5279C2114.5 47.7783 2128.72 61.6731 2133.75 79.2436C2139.75 100.222 2134.02 122.442 2128.49 143.921C2127.88 146.277 2127.28 148.61 2126.7 150.948C2110.17 216.889 2113.68 270.482 2137.44 314.812C2160.4 357.652 2199.93 384.161 2238.15 409.789C2277.01 435.837 2317.18 462.773 2339.8 506.853C2344.47 515.946 2348.47 525.402 2352 535.047V529.459C2348.9 521.436 2345.46 513.573 2341.55 505.937C2318.7 461.396 2278.3 434.335 2239.25 408.127C2201.22 382.631 2161.91 356.275 2139.17 313.879C2115.66 270.01 2112.2 216.877 2128.61 151.432C2129.19 149.116 2129.8 146.783 2130.39 144.427C2135.74 123.699 2141.79 100.211 2135.65 78.7145C2128.82 54.8281 2106.24 41.6218 2089.86 33.7526C2059.44 19.1409 2027.4 8.57472 1995.36 0H1987.57C2021.92 8.89905 2056.41 19.8863 2089.01 35.5222V35.5279Z" fill="var(--fill-0, #C3DCFF)"/>
<path id="Vector_34" d="M150.885 9.58753C144.205 6.06546 137.429 2.87341 130.538 0H125.195C133.599 3.31154 141.867 7.0612 149.963 11.3514C234.965 56.3701 315.262 157.452 302.453 248.695C295.352 299.381 264.308 348.4 236.917 391.655C233.167 397.607 229.452 403.484 225.85 409.248C221.867 415.661 217.89 422.073 213.924 428.486C187.551 471.092 160.274 515.155 129.19 555.309C104.825 586.831 76.2277 615.286 48.5689 642.803C35.3797 655.952 21.7125 669.534 8.56305 683.429C5.88309 686.251 2.95278 689.341 -0.0116721 692.635V695.611C3.47056 691.668 6.95849 687.992 10.0936 684.675C23.1293 670.934 36.7794 657.352 49.963 644.225C77.6615 616.663 106.293 588.162 130.754 556.543C161.895 516.293 189.19 472.19 215.585 429.544C219.568 423.132 223.529 416.719 227.511 410.306C231.107 404.543 234.823 398.688 238.578 392.736C266.083 349.305 297.242 300.075 304.399 248.969C312.286 192.832 286.027 141.725 262.618 108.746C233.753 68.0515 193.025 31.9148 150.874 9.59891L150.885 9.58753Z" fill="var(--fill-0, #C3DCFF)"/>
<path id="Vector_35" d="M629.596 -0.000561403C625.539 5.27969 621.442 10.4291 617.42 15.4078C613.283 20.5002 609.073 25.5927 604.845 30.7194C580.19 60.5232 554.677 91.3569 541.892 128.45C524.355 179.323 544.856 222.43 566.563 268.041L569.647 274.527C592.555 322.897 597.095 366.385 583.559 407.461C569.414 450.374 539.974 486.892 513.465 517.749C507.189 525.06 500.719 532.412 494.438 539.513C471.968 564.969 448.747 591.285 430.602 621.021C427.217 626.574 423.791 632.401 420.474 638.045C400.127 672.702 379.091 708.538 342.63 725.334C328.696 731.758 313.498 735.525 298.778 739.167C288.576 741.704 278.027 744.316 267.944 747.81C250.505 753.829 233.469 761.522 216.991 768.959C206.408 773.744 195.46 778.694 184.53 783.133C127.608 806.291 74.7598 808.72 27.4253 790.365C18.4694 786.888 8.63149 782.319 -0.005825 776.583V778.928C7.38539 783.724 16.3015 788.185 26.7141 792.219C74.5265 810.769 127.87 808.328 185.253 784.976C196.24 780.515 207.21 775.559 217.81 770.774C234.231 763.349 251.233 755.684 268.57 749.682C278.584 746.216 289.088 743.616 299.256 741.095C314.05 737.431 329.344 733.642 343.45 727.144C380.485 710.091 401.675 673.983 422.175 639.058C425.487 633.419 428.895 627.593 432.281 622.062C450.329 592.469 473.487 566.227 495.906 540.827C502.182 533.726 508.674 526.358 514.95 519.046C541.573 488.042 571.166 451.347 585.425 408.087C599.132 366.476 594.558 322.51 571.417 273.679L568.333 267.17C546.819 221.941 526.472 179.204 543.758 129.093C556.429 92.3242 581.812 61.6384 606.347 31.9711C610.575 26.8616 614.808 21.752 618.945 16.6425C623.292 11.2826 627.713 5.71213 632.094 -0.0119413H629.585L629.596 -0.000561403Z" fill="var(--fill-0, #C3DCFF)"/>
<path id="Vector_36" d="M2201.3 294.653C2220.88 336.093 2258.15 362.602 2294.19 388.23C2314.15 402.432 2334.49 416.901 2351.99 434.016V431.297C2334.71 414.642 2314.85 400.497 2295.33 386.625C2259.49 361.128 2222.43 334.773 2203.08 293.811C2163.02 208.98 2249.95 130.885 2307.48 79.2095L2314.46 72.9108C2327.47 61.1782 2340.36 48.757 2351.99 35.0102V31.9092C2340.04 46.2819 2326.67 59.2436 2313.15 71.4371L2306.17 77.7131C2248.2 129.799 2160.61 208.485 2201.3 294.653Z" fill="var(--fill-0, #C3DCFF)"/>
<path id="Vector_37" d="M569.761 29.9347C577.573 20.1367 585.459 10.202 593.038 0H583.144C576.731 8.46092 570.148 16.7682 563.599 24.9788C554.83 36.0229 545.738 47.4312 537.374 58.9363C507.342 100.205 469.982 151.54 486.21 206.778C492.987 229.805 505.869 250.209 518.347 269.942C534.864 296.127 550.483 320.832 553.624 351.615C562.757 440.964 487.627 510.995 427.257 567.291L422.397 571.826C385.305 606.444 350.886 636.367 305.122 652.151C284.986 659.093 263.432 662.575 242.607 665.943C238.419 666.62 234.226 667.303 230.049 667.997C228.536 668.248 226.835 668.566 224.957 668.896C209.97 671.616 182.066 676.68 169.298 667.679C165.753 665.169 163.654 661.744 162.868 657.198C160.513 643.4 166.351 626.114 171.517 610.865C172.763 607.218 173.93 603.775 174.942 600.498C181.662 578.722 189.776 556.771 199.751 533.362C216.325 494.432 237.076 453.681 265.06 405.14C271.836 393.424 279.586 381.236 287.819 368.332C326.71 307.273 370.795 238.061 341.413 168.467C324.32 127.944 294.061 89.4343 269.617 60.4213C250.186 37.3601 229.953 17.1494 209.19 0H196.536C219.62 18.0883 242.089 40.0229 263.603 65.5764C287.683 94.1512 317.464 132.052 334.152 171.597C361.908 237.327 319.011 304.644 281.151 364.053C272.9 377.032 265.094 389.282 258.243 401.168C230.089 449.994 209.201 490.995 192.496 530.233C182.425 553.892 174.214 576.116 167.403 598.142C166.43 601.317 165.281 604.708 164.052 608.304C158.578 624.452 152.376 642.751 155.096 658.546C156.245 665.198 159.5 670.461 164.78 674.188C180.245 685.079 209.11 679.844 226.357 676.726C228.194 676.39 229.879 676.083 231.352 675.832C235.506 675.133 239.677 674.455 243.853 673.784C265.025 670.359 286.903 666.825 307.671 659.667C354.909 643.377 390.01 612.89 427.757 577.653L432.622 573.118C494.273 515.627 571.007 444.082 561.476 350.79C558.148 318.152 541.3 291.472 524.992 265.691C512.839 246.419 500.241 226.47 493.795 204.519C478.654 153.07 514.734 103.477 543.752 63.6248C552.02 52.2734 561.032 40.922 569.761 29.9347Z" fill="var(--fill-0, #C3DCFF)"/>
<path id="Vector_38" d="M0 17.8209C11.1409 16.7512 22.5663 16.3301 34.242 16.5975C80.7913 17.6103 125.275 31.6986 162.903 57.3488C198.101 81.3489 227.774 114.407 248.65 152.934C261.247 176.189 267.814 194.965 269.896 213.799C272.326 235.751 270.949 261.054 266.414 278.283C257.742 311.051 236.957 343.575 218.601 372.264C215.313 377.39 212.075 382.466 208.957 387.461C181.531 431.234 151.898 471.604 120.894 507.416C89.0986 544.128 55.3744 577.038 20.7113 605.226C13.8777 610.78 6.97016 616.077 0 621.112V623.542C7.39122 618.239 14.7198 612.652 21.9347 606.774C56.7172 578.512 90.4983 545.522 122.385 508.719C153.452 472.827 183.159 432.383 210.624 388.514C213.742 383.535 216.98 378.466 220.268 373.333C238.681 344.525 259.563 311.871 268.314 278.778C272.929 261.361 274.323 235.751 271.853 213.589C269.748 194.465 263.125 175.477 250.397 151.995C229.344 113.156 199.483 79.8752 163.995 55.6987C126.06 29.8437 81.2123 15.6189 34.2818 14.6061C32.0229 14.5492 29.764 14.5321 27.5279 14.5321C18.185 14.5321 9.00147 14.993 0.00568993 15.8351V17.8266L0 17.8209Z" fill="var(--fill-0, #C3DCFF)"/>
<path id="Vector_39" d="M0.000266716 51.3744C3.29473 51.0273 6.60627 50.7257 9.91781 50.5095C52.12 47.9263 93.2354 56.979 128.797 76.7344C187.119 109.121 243.085 175.347 236.616 250.323C233.037 291.745 213.282 328.457 194.431 358.869C170.715 397.168 143.079 433.652 112.297 467.302C82.3961 499.997 49.5709 530.637 14.7543 558.392C10.2933 561.932 5.33742 565.875 -0.00542321 570V572.498C5.81537 568.037 11.1924 563.752 15.9776 559.94C50.8739 532.145 83.7731 501.425 113.748 468.64C144.621 434.915 172.32 398.335 196.109 359.922C215.074 329.299 234.943 292.337 238.562 250.493C241.509 216.325 231.404 180.82 209.293 147.824C189.594 118.407 161.344 92.5296 129.742 74.9933C97.8557 57.2862 61.5824 48.1027 24.0459 48.1027C19.3176 48.1027 14.5551 48.2335 9.78694 48.5465C6.51523 48.7343 3.23784 49.0415 -0.0111131 49.3715V51.3801L0.000266716 51.3744Z" fill="var(--fill-0, #C3DCFF)"/>
<path id="Vector_40" d="M0 79.7557C0.517784 79.6817 1.01281 79.602 1.53059 79.5281C38.2989 75.107 77.5025 82.9193 111.898 101.503C175.677 135.955 212.672 198.504 206.169 260.866C198.8 331.341 146.891 391.291 98.8284 441.954C73.2578 468.901 44.0116 495.604 9.40545 523.627C6.40117 526.056 3.24326 528.566 0.00568993 531.075V533.601C3.69845 530.751 7.23759 527.917 10.6459 525.158C45.3089 497.1 74.6348 470.341 100.245 443.331C148.553 392.417 200.695 332.161 208.121 261.077C214.727 197.913 177.321 134.595 112.837 99.7387C84.4328 84.4043 52.8139 76.3303 21.9005 76.3303C14.9873 76.3303 8.10246 76.7514 1.28592 77.5537C0.864869 77.6106 0.426745 77.6902 0.00568993 77.7471V79.7557H0Z" fill="var(--fill-0, #C3DCFF)"/>
<path id="Vector_41" d="M424.844 253.27C439.177 253.27 452.367 261.134 463.377 268.849C495.496 291.341 519.246 330.198 523.9 367.825C527.075 428.196 486.654 487.684 403.792 544.759C376.514 563.536 347.114 580.919 316.832 580.919C309.902 580.919 303.108 579.98 296.639 578.125C262.528 568.344 254.26 533.488 257.532 506.614C267.41 425.305 321.214 350.904 372.548 288.832C383.974 275.011 396.799 259.489 414.83 254.59C418.085 253.708 421.453 253.27 424.844 253.27ZM316.832 578.927C346.557 578.927 375.672 561.721 402.676 543.115C484.941 486.455 525.061 427.564 521.92 367.996C517.346 330.977 493.92 292.656 462.239 270.476C451.485 262.954 438.637 255.239 424.839 255.239C421.624 255.239 418.426 255.677 415.342 256.502C397.908 261.247 385.311 276.502 374.17 289.959C322.909 351.939 269.299 426.068 259.478 506.842C256.297 532.947 264.263 566.768 297.162 576.208C303.461 578.017 310.061 578.927 316.821 578.927H316.832Z" fill="var(--fill-0, #C3DCFF)"/>
<path id="Vector_42" d="M0.000133358 112.126C27.2207 108.41 55.4485 112.143 81.2921 123.113C137.873 147.153 174.869 199.87 173.321 254.306C171.54 317.202 125.486 372.155 80.6605 417.612C57.5765 441.021 31.1582 464.657 0.000133358 489.829V499.991C1.16657 499.052 2.35576 498.113 3.5222 497.175C35.5451 471.393 62.6064 447.2 86.2651 423.194C132.166 376.645 179.347 320.178 181.202 254.527C182.846 196.837 143.915 141.082 84.3476 115.796C63.9834 107.147 42.2023 102.777 20.5123 102.777C13.6389 102.777 6.78822 103.221 -0.00555657 104.097V112.12L0.000133358 112.126Z" fill="var(--fill-0, #C3DCFF)"/>
<path id="Vector_43" d="M0 141.082C20.956 137.656 43.2947 138.726 65.7073 147.608C109.349 164.911 149.981 210.829 143.21 265.134C136.092 322.152 95.9549 367.786 53.6333 408.594C38.0542 423.621 20.0968 440.122 0 456.008V458.517C20.6544 442.324 39.067 425.402 54.9932 410.033C97.5823 368.975 137.969 323.023 145.161 265.39C152.052 210.095 110.783 163.352 66.4356 145.782C51.3516 139.79 36.3074 137.281 21.6843 137.281C14.3329 137.281 7.07827 137.93 0 139.079V141.087L0 141.082Z" fill="var(--fill-0, #C3DCFF)"/>
<path id="Vector_44" d="M425.629 339.518C446.704 339.518 462.09 352.286 468.946 375.444C476.355 418.625 445.458 458.096 411.563 478.096C404.002 482.574 384.383 492.97 365.896 492.97C350.05 492.97 339.25 485.482 333.816 470.728C323.54 442.933 336.917 407.604 373.532 365.72C387.66 349.567 407.62 339.518 425.635 339.518H425.629ZM365.89 490.978C383.882 490.978 403.137 480.776 410.568 476.372C443.871 456.731 474.249 418.033 467.029 375.905C460.463 353.76 445.766 341.51 425.629 341.51C408.172 341.51 388.781 351.291 375 367.023C338.903 408.309 325.657 442.972 335.648 470.039C340.781 483.934 350.96 490.978 365.89 490.978Z" fill="var(--fill-0, #C3DCFF)"/>
<path id="Vector_45" d="M0 180.997C10.7938 179.136 21.0926 179.159 31.0272 181.053C72.484 188.94 102.328 225.059 100.45 265.042C98.2878 311.171 64.0458 349.105 30.8337 380.133C21.0755 389.242 10.7938 398.625 0 407.831V410.432C11.2945 400.861 22.0086 391.08 32.1765 381.584C65.6731 350.289 100.222 311.973 102.424 265.134C104.359 224.155 73.8097 187.176 31.4141 179.096C26.2476 178.117 20.9845 177.622 15.6245 177.622C10.515 177.622 5.32577 178.083 0.00568993 178.982V180.991L0 180.997Z" fill="var(--fill-0, #C3DCFF)"/>
<path id="Vector_46" d="M1659.49 95.972C1665.92 95.972 1672.39 96.4101 1678.72 97.2921C1778.75 111.204 1827.01 216.291 1846.88 277.674C1856.59 322.044 1830.5 362.813 1769.37 398.966C1716.24 430.375 1662.47 446.682 1609.56 447.41C1544.37 448.309 1477.74 430.796 1433.78 417.703C1430.64 416.764 1427.24 415.791 1423.67 414.756C1381.61 402.659 1318.05 384.377 1316.96 335.171C1316.1 296.815 1355.43 265.27 1384.14 242.243C1386.41 240.405 1388.62 238.647 1390.72 236.923C1421.74 211.751 1456.42 190.408 1489.98 169.759C1503.01 161.742 1516.48 153.452 1529.5 145.087C1569.18 119.574 1612.39 95.972 1659.49 95.972ZM1604.55 445.459C1606.22 445.459 1607.87 445.442 1609.53 445.419C1662.1 444.691 1715.54 428.48 1768.36 397.242C1828.68 361.584 1854.46 321.521 1844.98 278.203C1825.28 217.338 1777.42 113.019 1678.45 99.2608C1672.21 98.3959 1665.82 97.9578 1659.49 97.9578C1612.9 97.9578 1570 121.406 1530.57 146.749C1517.53 155.13 1504.05 163.437 1491.02 171.46C1457.52 192.075 1422.89 213.378 1391.97 238.471C1389.87 240.195 1387.66 241.953 1385.37 243.791C1356.98 266.567 1318.11 297.748 1318.94 335.131C1320 382.887 1382.71 400.918 1424.21 412.861C1427.79 413.874 1431.2 414.853 1434.35 415.791C1477.06 428.52 1541.17 445.459 1604.55 445.459H1604.55Z" fill="var(--fill-0, #C3DCFF)"/>
<path id="Vector_47" d="M2257.73 257.674C2259.67 293.657 2282.61 320.013 2302.37 338.943C2317.27 353.219 2333.92 366.545 2352 378.756V376.343C2334.44 364.4 2318.25 351.421 2303.73 337.504C2284.23 318.801 2261.6 292.849 2259.7 257.555C2257.98 225.515 2272.94 198.351 2285.79 181.224C2304.37 156.456 2328.51 136.456 2352 117.178V114.612C2328.02 134.271 2303.26 154.635 2284.22 180.035C2271.17 197.435 2255.98 225.02 2257.73 257.669V257.674Z" fill="var(--fill-0, #C3DCFF)"/>
<path id="Vector_48" d="M0 234.357C10.3955 234.129 20.4439 237.116 28.3472 243.028C37.8039 250.112 43.1581 260.809 43.4085 273.134C44.0628 303.95 20.057 328.474 0 347.017V349.714C20.5975 330.767 46.0713 305.464 45.3829 273.094C45.1154 260.138 39.4881 248.877 29.5364 241.435C21.5534 235.46 11.5278 232.342 1.11523 232.342C0.751071 232.342 0.369845 232.382 0.00568993 232.382V234.357H0Z" fill="var(--fill-0, #C3DCFF)"/>
<path id="Vector_49" d="M1638.19 145.412H1638.19C1661.98 145.412 1683.69 152.268 1702.7 165.776C1735.69 189.202 1758.47 228.843 1765.18 274.516C1768.01 296.889 1763.13 319.097 1751.43 337.083C1718.57 387.541 1649.49 405.533 1595.8 405.533C1586.89 405.533 1578.1 405.055 1569.69 404.099C1538.53 400.56 1508.55 393.743 1480.58 383.831C1453.04 374.09 1423.01 360.804 1408.95 336.093C1394.89 311.364 1406.66 280.798 1443 247.7C1482.29 211.927 1529.49 180.285 1572.49 160.9C1595.25 150.624 1617.35 145.412 1638.18 145.412H1638.19ZM1595.8 403.541C1648.98 403.541 1717.36 385.8 1749.79 335.996C1761.23 318.403 1766.01 296.662 1763.23 274.784C1756.59 229.668 1734.11 190.527 1701.57 167.403C1682.89 154.123 1661.57 147.403 1638.2 147.403H1638.19C1617.65 147.403 1595.81 152.553 1573.32 162.698C1530.5 182.027 1483.49 213.532 1444.34 249.173C1408.26 282.038 1396.93 310.943 1410.68 335.114C1424.41 359.251 1454.06 372.343 1481.24 381.948C1509.08 391.803 1538.91 398.58 1569.91 402.102C1578.26 403.057 1586.97 403.535 1595.8 403.535V403.541Z" fill="var(--fill-0, #C3DCFF)"/>
<path id="Vector_50" d="M2352 316.183C2336.93 301.981 2327.13 285.213 2323.78 267.392C2318.1 237.128 2334.35 209.452 2352 189.372V186.385C2333.49 206.943 2315.86 235.864 2321.84 267.751C2325.37 286.528 2335.86 304.138 2352 318.875V316.178V316.183Z" fill="var(--fill-0, #C3DCFF)"/>
<path id="Vector_51" d="M1607.55 217.708C1633.16 217.708 1663.19 229.976 1670.68 264.451L1670.71 264.582L1670.61 266.346C1669.5 287 1668.46 306.499 1651.23 321.64C1635.45 335.495 1614.66 342.847 1591.11 342.847C1590.23 342.847 1589.33 342.83 1588.45 342.807C1571.15 342.386 1533.91 336.298 1516.75 316.224C1509.84 308.127 1507.01 298.693 1508.33 288.161C1512.57 254.437 1556.96 227.848 1585.63 220.502C1592.87 218.647 1600.24 217.708 1607.55 217.708ZM1668.72 264.735C1661.44 231.529 1632.36 219.7 1607.55 219.7C1600.39 219.7 1593.19 220.621 1586.12 222.419C1557.97 229.634 1514.41 255.609 1510.29 288.417C1509.04 298.374 1511.72 307.29 1518.25 314.926C1534.96 334.471 1571.51 340.423 1588.5 340.821C1589.38 340.838 1590.25 340.861 1591.12 340.861C1614.19 340.861 1634.52 333.703 1649.95 320.132C1666.53 305.566 1667.52 287.347 1668.65 266.232L1668.73 264.741L1668.72 264.735Z" fill="var(--fill-0, #C3DCFF)"/>
<path id="Vector_52" d="M543.519 0C525.26 26.185 505.009 50.9305 485.271 74.9933L483.012 77.7472C481.402 79.6988 479.774 81.7074 478.09 83.7956C460.309 105.77 438.198 133.139 409.356 134.766C376.149 136.621 347.205 103.488 329.942 83.6988C320.963 73.4228 311.967 62.8908 303.261 52.7115C288.354 35.2776 273.042 17.377 257.27 0H254.59C270.766 17.781 286.476 36.1367 301.771 54.0145C310.476 64.1995 319.495 74.7258 328.451 85.0018C345.964 105.082 375.307 138.709 409.475 136.74C439.182 135.073 461.618 107.34 479.626 85.0587C481.294 82.9705 482.938 80.962 484.525 79.0103L486.784 76.2564C506.841 51.8125 527.422 26.6801 545.931 0H543.519Z" fill="var(--fill-0, #C3DCFF)"/>
<path id="Vector_53" d="M1501.05 0.000133358C1501.05 0.000133358 1501.03 0.0399629 1501.01 0.0399629C1442.24 66.1114 1379.26 106.368 1313.82 119.705C1263.64 129.924 1222.69 130.578 1188.63 121.713C1171.08 117.139 1159.79 109.173 1155.06 98.0547C1153 93.1955 1143.2 68.5581 1153 60.7287L1153.28 60.5011L1153.35 60.1541C1157.54 39.3687 1164.86 19.4028 1173.39 -0.00555657H1171.23C1162.86 19.1524 1155.67 38.851 1151.48 59.4087C1141.27 68.12 1150.23 91.7388 1153.24 98.8399C1158.22 110.555 1169.96 118.897 1188.13 123.625C1222.48 132.581 1263.72 131.932 1314.2 121.634C1380.07 108.234 1443.42 67.7501 1502.48 1.37141C1502.88 0.910522 1503.27 0.449638 1503.67 -0.00555657H1501.04L1501.05 0.000133358Z" fill="var(--fill-0, #C3DCFF)"/>
<path id="Vector_54" d="M1091.38 0.000133357C1043.78 47.9662 981.57 84.5069 915.117 103.301C882.827 112.433 838.935 119.398 813.324 100.774C800.118 91.1471 792.943 75.4884 791.981 54.2024C791.156 36.0401 792.709 17.9291 795.429 -0.00555657H793.438C790.741 17.9291 789.187 36.0743 790.012 54.2934C790.991 76.211 798.456 92.3818 812.18 102.373C838.422 121.474 882.946 114.453 915.657 105.207C983.06 86.1513 1046.17 48.9051 1094.17 0.000133357H1091.38Z" fill="var(--fill-0, #C3DCFF)"/>
<path id="Vector_55" d="M1467.8 0.000133358C1428.41 46.9705 1377.5 78.9934 1323.65 90.5326C1294.94 96.6777 1254.81 99.8185 1226.79 79.8128C1200.7 61.2067 1200.77 28.4953 1205.42 4.31879C1205.7 2.88493 1206.01 1.42831 1206.33 -0.00555657H1204.31C1204.02 1.31451 1203.74 2.63457 1203.48 3.95463C1198.72 28.6831 1198.7 62.2024 1225.65 81.4401C1254.26 101.844 1294.96 98.7033 1324.06 92.4842C1378.83 80.7573 1430.56 48.0061 1470.39 0.000133358H1467.8Z" fill="var(--fill-0, #C3DCFF)"/>
<path id="Vector_56" d="M1431.81 0.000133357C1400.11 35.0444 1358.09 58.0943 1318.35 61.44C1294.81 63.4144 1274.3 56.0801 1260.58 40.7855C1250.73 29.7983 1245.31 15.693 1244.68 -0.00555657H1242.7C1243.35 16.188 1248.92 30.7542 1259.12 42.1227C1273.25 57.8724 1294.34 65.4571 1318.51 63.4087C1359.24 59.9833 1402.29 36.1482 1434.45 -0.00555657H1431.8L1431.81 0.000133357Z" fill="var(--fill-0, #C3DCFF)"/>
<path id="Vector_57" d="M495.206 0C472.737 28.5976 443.24 50.6062 418.244 56.3474C377.59 65.6732 341.988 32.3472 315.632 0H313.066C339.843 33.1495 376.401 67.989 418.682 58.2819C444.446 52.3872 474.842 29.5307 497.698 0H495.212H495.206Z" fill="var(--fill-0, #C3DCFF)"/>
<path id="Vector_58" d="M1039.26 0C1013.34 15.7895 985.877 27.0841 958.543 32.2733C907.475 41.9575 874.844 31.0841 861.501 0H859.356C872.892 32.6545 906.366 44.1766 958.907 34.2249C987.237 28.865 1016.04 17.0755 1043.47 0H1039.26Z" fill="var(--fill-0, #C3DCFF)"/>
<path id="Vector_59" d="M1383.09 0C1380.69 1.64439 1378.23 3.19774 1375.71 4.64867C1360.02 13.7013 1342.73 18.8906 1328.26 18.8906C1316.51 18.8906 1301.83 15.3116 1293.32 0H1291.03C1299.85 16.9958 1315.68 20.882 1328.27 20.882C1343.06 20.882 1360.72 15.6018 1376.7 6.37272C1380.07 4.42107 1383.34 2.29873 1386.49 0H1383.1L1383.09 0Z" fill="var(--fill-0, #C3DCFF)"/>
</g>
<defs>
<clipPath id="clip0_766_1137">
<rect width="2352" height="1176" fill="white"/>
</clipPath>
</defs>
</svg>
