<svg width="109" height="21" viewBox="0 0 109 21" fill="none" xmlns="http://www.w3.org/2000/svg">
<path d="M0 15.8266H12.3915C14.1066 15.8266 15.0594 15.0643 15.0594 13.6815C15.0594 12.2987 14.1066 11.5853 12.3915 11.5853H0V7.96214H12.3915C14.1066 7.96214 15.0594 7.29517 15.0594 5.81708C15.0594 4.43427 14.1066 3.81616 12.3915 3.81616H0V0.00244312H12.3915C16.7769 0.00244312 19.2078 1.90808 19.2078 5.34067C19.2078 7.77158 17.4439 9.34495 15.2988 9.34495V9.87022C17.4439 9.87022 19.2078 11.5853 19.2078 14.0651C19.2078 17.7346 16.7769 19.5939 12.3915 19.5939H0V15.829V15.8266ZM31.0741 16.2541V0.00244312H35.2201V15.8266H47.7558V19.5914H34.4114C32.2663 19.5914 31.0741 18.3992 31.0741 16.2541ZM58.4322 9.7725V0.00244312H62.5782V9.7725C62.5782 13.8232 64.865 16.1588 68.8692 16.1588C72.8735 16.1588 75.1603 13.8232 75.1603 9.7725V0.00244312H79.3551V9.7725C79.3551 16.2541 75.5414 20.0678 68.8692 20.0678C62.1971 20.0678 58.4322 16.2541 58.4322 9.7725ZM89.7922 14.0626C89.7922 11.5853 91.5561 9.86778 93.7012 9.86778V9.34251C91.5561 9.34251 89.7922 7.76914 89.7922 5.33823C89.7922 1.85922 92.2231 0 96.6549 0H108.905V3.81372H96.6549C94.891 3.81372 93.9381 4.43427 93.9381 5.81464C93.9381 7.29273 94.891 7.91084 96.6549 7.91084H108.665V11.5804H96.6549C94.891 11.5804 93.9381 12.2962 93.9381 13.6766C93.9381 15.057 94.891 15.8217 96.6549 15.8217H109V19.5865H96.6549C92.2231 19.5865 89.7922 17.6809 89.7922 14.0577V14.0626Z" fill="white"/>
</svg>
